# xmcd
#
# Track frame offsets:
#	150
#	12737
#	22343
#	37309
#	49844
#	60463
#	76408
#	91252
#	109203
#	126173
#	146814
#	164533
#	175673
#	186323
#	198362
#
# Disc length: 2818 seconds
#
# Revision: 2
# Processed by: cddbd v1.5.2PL0 Copyright (c) Steve Scherf et al.
# Submitted via: audiograbber 1.83.01
#
DISCID=dd0b000f
DTITLE=Nashville Sound - NSCD4014
DYEAR=1900
DGENRE=Karaoke CDG
TTITLE0=Roger Miller - King Of The Road
TTITLE1=Roger Miller - Dang Me
TTITLE2=Ricky Van Shelton - Statue Of A Fool
TTITLE3=Don Williams - Tulsa Time
TTITLE4=George Jones - Race Is On, The
TTITLE5=Country Standard - Emotions
TTITLE6=Alabama - Jukebox in My Mind
TTITLE7=Alabama - Forever's As Far As I Can Go
TTITLE8=Country Standard - Ring On Her Finger, Time On Her Hands
TTITLE9=Ronnie Milsap - Almost Like a Song
TTITLE10=Country Standard - Friday Night Blues
TTITLE11=Buck Owens - Act Naturally
TTITLE12=Faron Young - Hello Walls
TTITLE13=Reba McEntire - Have I Got a Deal For You
TTITLE14=Dolly Parton - I Will Always Love You
EXTD=
EXTT0=
EXTT1=
EXTT2=
EXTT3=
EXTT4=
EXTT5=
EXTT6=
EXTT7=
EXTT8=
EXTT9=
EXTT10=
EXTT11=
EXTT12=
EXTT13=
EXTT14=
PLAYORDER=
